<svg id="svg" xmlns="http://www.w3.org/2000/svg" xmlns:xlink="http://www.w3.org/1999/xlink" width="400" height="400" viewBox="0, 0, 400,400"><g id="svgg"><path id="path0" d="M157.396 10.663 C 3.020 45.296,-52.188 228.107,57.988 339.832 C 181.423 465.002,393.665 378.895,393.903 203.550 C 394.073 77.963,278.296 -16.460,157.396 10.663 M235.680 17.863 C 271.915 25.348,301.234 41.092,329.586 68.290 C 348.486 86.421,348.804 87.574,334.911 87.574 C 322.181 87.574,322.363 86.292,332.295 106.014 C 339.469 120.258,349.937 150.841,353.732 168.639 C 355.073 174.927,355.640 175.148,370.459 175.148 C 384.003 175.148,385.799 175.679,385.799 179.688 C 385.799 182.185,386.445 185.913,387.235 187.972 C 388.535 191.358,376.309 191.716,259.425 191.716 L 130.178 191.716 130.178 186.213 C 130.178 177.816,138.935 131.203,144.263 111.243 C 151.079 85.706,152.153 87.289,128.543 88.074 L 107.974 88.757 98.902 106.509 C 88.457 126.947,79.512 153.673,75.604 176.115 L 72.887 191.716 40.469 191.716 L 8.051 191.716 9.018 183.432 L 9.985 175.148 36.656 175.148 C 66.828 175.148,66.269 175.457,70.842 156.213 C 72.543 149.053,76.999 135.207,80.743 125.444 C 84.488 115.680,87.557 106.893,87.563 105.917 C 87.569 104.941,76.391 104.142,62.722 104.142 C 49.053 104.142,37.870 103.697,37.870 103.152 C 37.870 95.647,41.244 94.675,67.296 94.675 L 93.848 94.675 104.734 77.515 C 110.721 68.077,118.895 57.227,122.899 53.403 C 133.815 42.978,132.511 40.237,116.633 40.237 C 103.797 40.237,103.359 40.047,108.262 36.613 C 134.212 18.437,195.090 9.479,235.680 17.863 M157.296 34.031 C 142.114 44.254,117.870 70.349,118.845 75.415 C 119.887 80.826,151.236 81.116,153.917 75.740 C 156.635 70.291,176.227 29.820,177.120 27.811 C 179.116 23.321,168.038 26.797,157.296 34.031 M213.665 41.244 C 171.174 51.630,149.419 98.425,169.144 137.011 C 195.967 189.483,272.913 185.817,293.388 131.093 C 312.572 79.818,266.817 28.251,213.665 41.244 M154.453 56.393 C 148.159 70.633,147.763 71.006,138.925 71.006 L 129.855 71.006 134.802 64.058 C 139.554 57.386,159.030 39.898,160.298 41.166 C 160.636 41.503,158.005 48.356,154.453 56.393 M112.749 52.663 C 110.656 55.592,104.520 64.645,99.113 72.781 L 89.282 87.574 69.493 87.574 C 45.243 87.574,45.242 87.530,68.835 65.335 L 87.967 47.337 102.260 47.337 L 116.554 47.337 112.749 52.663 M245.336 49.149 C 246.839 50.105,239.751 50.888,229.586 50.888 C 219.420 50.888,212.333 50.105,213.835 49.149 C 215.338 48.192,222.426 47.410,229.586 47.410 C 236.746 47.410,243.833 48.192,245.336 49.149 M190.049 67.417 C 182.679 74.556,176.222 79.970,175.701 79.449 C 174.183 77.931,197.663 54.438,200.698 54.438 C 202.211 54.438,197.420 60.279,190.049 67.417 M268.205 60.194 C 276.011 66.157,285.884 80.473,282.191 80.473 C 281.035 80.473,278.579 77.631,276.731 74.156 C 274.884 70.682,269.219 64.824,264.142 61.139 C 259.065 57.453,256.207 54.438,257.791 54.438 C 259.375 54.438,264.061 57.028,268.205 60.194 M241.286 59.038 C 248.680 63.717,240.893 72.221,229.489 71.922 C 218.549 71.635,211.337 63.200,218.269 58.802 C 222.358 56.207,237.049 56.358,241.286 59.038 M210.089 69.535 C 213.688 77.434,200.595 90.595,192.308 87.408 C 185.032 84.610,185.601 81.381,195.030 71.953 C 204.573 62.409,206.688 62.069,210.089 69.535 M266.315 73.732 L 275.192 83.558 268.848 86.882 C 260.641 91.182,247.195 78.977,249.597 69.409 C 251.605 61.408,256.271 62.615,266.315 73.732 M227.219 83.770 C 227.219 88.384,220.193 90.583,216.156 87.232 C 213.438 84.976,213.382 84.068,215.864 82.494 C 220.709 79.420,227.219 80.152,227.219 83.770 M243.767 82.778 C 246.470 84.487,246.646 85.661,244.518 87.790 C 241.001 91.306,234.320 88.888,234.320 84.098 C 234.320 80.018,238.482 79.436,243.767 82.778 M173.964 106.391 C 173.964 117.795,173.110 124.352,171.795 123.037 C 167.942 119.185,169.473 87.574,173.512 87.574 C 173.761 87.574,173.964 96.041,173.964 106.391 M289.941 97.041 C 291.693 107.412,289.467 125.444,286.434 125.444 C 285.385 125.444,285.512 121.061,286.715 115.704 C 287.919 110.347,288.254 103.690,287.459 100.911 C 286.665 98.132,285.495 93.994,284.860 91.716 C 284.224 89.438,284.748 87.574,286.023 87.574 C 287.298 87.574,289.061 91.834,289.941 97.041 M211.668 100.171 C 209.817 104.995,203.550 105.469,203.550 100.785 C 203.550 92.892,206.367 89.376,209.878 92.887 C 211.701 94.710,212.506 97.988,211.668 100.171 M256.297 97.002 C 257.988 103.470,253.285 105.888,249.385 100.556 C 247.073 97.393,246.925 95.414,248.829 93.120 C 252.001 89.298,254.641 90.670,256.297 97.002 M190.305 94.408 C 197.517 97.237,196.667 115.610,189.137 119.640 C 180.939 124.028,176.139 109.549,181.318 96.052 C 182.894 91.944,183.665 91.803,190.305 94.408 M279.290 106.509 C 279.290 121.107,277.932 122.765,268.833 119.273 C 263.358 117.173,263.669 98.103,269.231 94.864 C 277.697 89.933,279.290 91.777,279.290 106.509 M139.665 96.450 C 139.676 97.426,136.864 110.207,133.415 124.852 L 127.145 151.479 108.543 151.479 C 86.962 151.479,87.430 152.463,97.491 128.238 C 110.848 96.077,112.075 94.675,126.861 94.675 C 133.892 94.675,139.654 95.473,139.665 96.450 M238.580 97.515 C 242.241 101.176,242.241 111.842,238.580 115.503 C 231.483 122.600,217.751 117.250,217.751 107.388 C 217.751 97.023,231.548 90.483,238.580 97.515 M362.667 109.467 C 371.037 123.829,383.432 156.652,383.432 164.452 C 383.432 167.561,381.319 168.167,372.506 167.585 L 361.581 166.864 355.832 146.746 C 352.670 135.680,346.935 119.851,343.089 111.569 C 334.522 93.124,334.340 94.675,345.070 94.675 C 353.583 94.675,354.491 95.438,362.667 109.467 M69.146 136.686 C 64.603 150.680,60.534 163.462,60.103 165.089 C 58.835 169.880,11.834 169.232,11.834 164.422 C 11.834 159.805,19.506 137.083,25.994 122.485 L 30.991 111.243 54.198 111.243 L 77.405 111.243 69.146 136.686 M211.834 116.963 C 211.834 123.895,207.075 123.950,203.932 117.053 C 201.338 111.360,201.527 110.963,206.483 111.666 C 209.915 112.153,211.834 114.053,211.834 116.963 M257.988 112.582 C 257.988 113.318,256.849 116.050,255.456 118.652 C 252.506 124.165,245.476 120.496,247.731 114.620 C 248.945 111.457,257.988 109.660,257.988 112.582 M227.219 130.121 C 227.219 133.708,223.957 134.464,218.073 132.243 C 213.480 130.509,212.995 129.507,215.363 126.653 C 218.377 123.022,227.219 125.609,227.219 130.121 M242.365 131.828 C 236.536 136.090,234.320 135.690,234.320 130.375 C 234.320 124.911,239.036 122.760,243.409 126.229 C 246.008 128.290,245.819 129.302,242.365 131.828 M205.394 132.055 C 211.869 138.104,212.233 139.249,209.677 145.503 L 206.883 152.339 196.932 143.350 C 186.798 134.194,184.640 129.150,189.941 127.011 C 195.753 124.666,198.412 125.534,205.394 132.055 M274.149 128.981 C 275.765 130.598,266.586 142.309,260.060 146.956 L 253.289 151.777 250.505 145.667 C 245.366 134.389,265.411 120.243,274.149 128.981 M181.707 138.218 C 183.794 142.798,190.686 149.062,203.353 157.892 C 203.895 158.271,203.799 159.120,203.139 159.780 C 200.959 161.960,183.512 147.557,179.156 139.981 C 176.804 135.891,175.835 132.544,177.001 132.544 C 178.167 132.544,180.285 135.097,181.707 138.218 M278.442 142.966 C 272.649 150.561,260.282 160.947,257.031 160.947 C 256.256 160.947,261.746 154.734,269.231 147.140 C 284.142 132.013,288.198 130.175,278.442 142.966 M242.350 145.756 C 245.779 154.692,244.115 156.213,230.909 156.213 C 216.885 156.213,214.923 154.940,216.958 147.156 C 218.680 140.573,239.912 139.402,242.350 145.756 M124.582 169.561 C 123.754 175.601,123.077 183.056,123.077 186.129 C 123.077 191.587,122.583 191.716,101.775 191.716 C 90.059 191.716,80.473 191.379,80.473 190.967 C 80.473 188.112,85.880 161.779,86.758 160.355 C 87.360 159.379,96.456 158.580,106.970 158.580 L 126.087 158.580 124.582 169.561 M248.521 163.603 C 248.521 166.135,229.519 168.249,221.047 166.660 C 206.893 164.005,210.520 162.130,229.812 162.130 C 240.102 162.130,248.521 162.793,248.521 163.603 M388.166 203.550 C 388.166 208.245,386.588 208.284,197.633 208.284 C 4.025 208.284,0.919 208.154,8.679 200.394 C 13.420 195.653,388.166 198.769,388.166 203.550 M267.456 221.286 C 267.456 229.182,256.448 285.282,252.062 299.737 C 245.994 319.739,245.819 319.527,268.399 319.527 L 288.278 319.527 298.923 298.817 C 310.597 276.105,320.433 247.136,323.033 227.811 L 324.705 215.385 355.252 215.385 L 385.799 215.385 385.799 223.594 L 385.799 231.802 358.307 232.469 L 330.815 233.136 326.516 250.079 C 324.152 259.398,319.413 274.033,315.985 282.601 C 308.005 302.548,308.389 302.959,335.051 302.959 C 347.341 302.959,357.396 303.811,357.396 304.852 C 357.396 310.640,350.325 312.426,327.410 312.426 L 303.104 312.426 294.432 326.036 C 289.662 333.521,281.563 344.679,276.434 350.832 C 265.640 363.780,266.305 366.790,280.021 367.057 L 289.941 367.250 275.686 374.117 C 212.025 404.783,127.993 392.889,73.373 345.480 L 62.722 336.236 82.323 336.165 C 105.057 336.083,107.533 333.857,99.445 320.770 L 94.288 312.426 68.529 312.426 C 45.346 312.426,42.521 311.961,40.281 307.776 C 37.892 303.311,38.765 303.098,62.091 302.450 C 90.328 301.666,88.853 304.869,77.115 269.822 C 72.537 256.154,68.205 242.041,67.487 238.462 L 66.182 231.953 37.825 231.953 L 9.467 231.953 9.467 223.669 L 9.467 215.385 138.462 215.385 L 267.456 215.385 267.456 221.286 M315.593 217.160 C 316.186 218.136,315.611 225.059,314.314 232.544 L 311.956 246.154 291.902 246.154 L 271.849 246.154 273.498 232.544 C 275.680 214.542,274.581 215.385,295.858 215.385 C 306.119 215.385,314.999 216.183,315.593 217.160 M77.170 233.919 C 75.693 236.310,82.991 264.032,88.647 277.515 L 92.371 286.391 116.008 286.391 C 143.556 286.391,141.904 289.125,135.316 254.438 L 131.271 233.136 104.875 232.469 C 90.358 232.101,77.890 232.754,77.170 233.919 M158.580 238.612 C 158.580 248.061,165.336 298.119,166.968 300.759 C 167.715 301.969,175.719 302.959,184.755 302.959 L 201.183 302.959 201.183 267.456 L 201.183 231.953 179.882 231.953 L 158.580 231.953 158.580 238.612 M61.589 244.379 C 61.633 249.023,71.550 279.936,76.776 291.716 C 78.455 295.501,76.651 295.858,55.840 295.858 L 33.067 295.858 28.375 288.166 C 23.638 280.397,11.834 247.457,11.834 242.004 C 11.834 239.835,18.419 239.053,36.686 239.053 C 60.866 239.053,61.540 239.197,61.589 244.379 M127.670 255.030 C 129.162 263.817,130.941 272.870,131.623 275.148 C 132.728 278.837,130.905 279.290,114.952 279.290 C 105.101 279.290,97.034 279.024,97.025 278.698 C 97.016 278.373,94.353 270.283,91.108 260.720 C 87.862 251.157,85.207 242.370,85.207 241.193 C 85.207 240.016,94.151 239.053,105.082 239.053 L 124.958 239.053 127.670 255.030 M194.083 267.456 L 194.083 295.858 183.432 295.858 C 177.574 295.858,172.773 295.059,172.763 294.083 C 172.753 293.107,171.785 285.917,170.611 278.107 C 169.436 270.296,167.810 258.314,166.997 251.479 L 165.517 239.053 179.800 239.053 L 194.083 239.053 194.083 267.456 M383.432 242.004 C 383.432 247.457,371.629 280.397,366.891 288.166 L 362.200 295.858 340.666 295.858 C 324.364 295.858,319.429 295.139,320.356 292.899 C 324.176 283.663,336.095 245.552,336.095 242.575 C 336.095 239.692,340.387 239.053,359.763 239.053 C 377.086 239.053,383.432 239.844,383.432 242.004 M306.748 260.947 C 305.904 265.178,300.421 278.491,294.565 290.533 L 283.918 312.426 270.953 312.426 C 256.404 312.426,256.584 312.775,261.348 293.833 C 263.195 286.485,265.934 274.349,267.433 266.864 L 270.158 253.254 289.221 253.254 L 308.284 253.254 306.748 260.947 M100.702 298.047 C 94.568 307.972,139.855 364.323,163.811 376.574 C 178.147 383.906,178.736 381.429,167.560 360.795 C 163.386 353.090,156.197 335.593,151.584 321.913 L 143.195 297.041 122.680 296.360 C 110.782 295.965,101.550 296.674,100.702 298.047 M144.540 324.703 C 148.220 336.012,153.439 349.592,156.137 354.881 C 158.835 360.170,160.189 364.497,159.146 364.497 C 155.765 364.497,130.894 337.668,120.934 323.276 C 107.799 304.299,108.117 302.556,124.546 303.432 L 137.849 304.142 144.540 324.703 M91.863 324.852 C 93.154 331.603,56.811 330.970,52.562 324.167 C 49.603 319.430,49.933 319.353,70.309 320.025 C 87.878 320.605,91.193 321.347,91.863 324.852 M340.689 326.823 C 328.659 343.718,305.348 359.763,292.833 359.763 C 286.469 359.763,281.621 358.964,282.059 357.988 C 282.498 357.012,288.178 348.016,294.683 337.997 L 306.509 319.780 326.197 319.653 L 345.884 319.527 340.689 326.823 M239.047 340.237 C 236.254 347.722,230.777 359.043,226.876 365.395 C 210.359 392.296,245.588 375.389,270.082 344.661 C 283.314 328.061,282.648 326.627,261.709 326.627 L 244.127 326.627 239.047 340.237 M265.352 337.969 C 262.949 342.460,240.177 364.497,237.939 364.497 C 237.215 364.497,238.338 360.503,240.435 355.621 C 242.532 350.740,245.313 343.817,246.616 340.237 C 248.652 334.639,250.289 333.728,258.303 333.728 C 266.528 333.728,267.356 334.226,265.352 337.969 " stroke="none" fill="#000000" fill-rule="evenodd"></path></g></svg>